<svg xmlns="http://www.w3.org/2000/svg" width="512" height="512" viewBox="0 0 512 512" fill="none">
  <defs>
    <linearGradient id="bg" x1="64" y1="56" x2="438" y2="456" gradientUnits="userSpaceOnUse">
      <stop stop-color="#050505"/>
      <stop offset="1" stop-color="#2A2A2A"/>
    </linearGradient>
    <linearGradient id="shine" x1="122" y1="84" x2="310" y2="262" gradientUnits="userSpaceOnUse">
      <stop stop-color="white" stop-opacity=".18"/>
      <stop offset="1" stop-color="white" stop-opacity="0"/>
    </linearGradient>
  </defs>
  <rect width="512" height="512" rx="128" fill="url(#bg)"/>
  <rect x="26" y="26" width="460" height="460" rx="102" stroke="#FFFFFF" stroke-opacity=".12"/>
  <path d="M154 78H358C305 116 255 184 255 288V434L154 336V78Z" fill="url(#shine)"/>
  <g transform="translate(96 78)">
    <path d="M160 0L320 120V344L160 500L0 344V120L160 0Z" fill="white"/>
    <path d="M160 64L252 132V298L160 384L68 298V132L160 64Z" fill="#090909"/>
    <path d="M107 159H213V195H107V159ZM89 227H231V263H89V227ZM73 295H247V331H73V295Z" fill="white"/>
  </g>
</svg>
