<svg xmlns="http://www.w3.org/2000/svg" width="1024" height="1024" viewBox="0 0 1024 1024" fill="none">
  <defs>
    <linearGradient id="bg" x1="160" y1="120" x2="860" y2="900" gradientUnits="userSpaceOnUse">
      <stop stop-color="#24456E"/>
      <stop offset="0.58" stop-color="#17324F"/>
      <stop offset="1" stop-color="#0E2136"/>
    </linearGradient>
    <radialGradient id="halo" cx="0" cy="0" r="1" gradientUnits="userSpaceOnUse" gradientTransform="translate(370 250) rotate(49.5) scale(600 610)">
      <stop stop-color="#93C5FD" stop-opacity="0.35"/>
      <stop offset="1" stop-color="#93C5FD" stop-opacity="0"/>
    </radialGradient>
    <radialGradient id="ball" cx="0" cy="0" r="1" gradientUnits="userSpaceOnUse" gradientTransform="translate(420 350) rotate(52.4) scale(470 470)">
      <stop stop-color="#FFFFFF"/>
      <stop offset="1" stop-color="#F3F1EC"/>
    </radialGradient>
    <filter id="shadow" x="184" y="192" width="656" height="656" color-interpolation-filters="sRGB" filterUnits="userSpaceOnUse">
      <feFlood flood-opacity="0" result="BackgroundImageFix"/>
      <feColorMatrix in="SourceAlpha" values="0 0 0 0 0 0 0 0 0 0 0 0 0 0 0 0 0 0 127 0" result="hardAlpha"/>
      <feOffset dy="18"/>
      <feGaussianBlur stdDeviation="22"/>
      <feColorMatrix values="0 0 0 0 0.0352941 0 0 0 0 0.0941176 0 0 0 0 0.164706 0 0 0 0.24 0"/>
      <feBlend in2="BackgroundImageFix" result="effect1_dropShadow_0_1"/>
      <feBlend in="SourceGraphic" in2="effect1_dropShadow_0_1" result="shape"/>
    </filter>
  </defs>
  <rect width="1024" height="1024" rx="228" fill="url(#bg)"/>
  <rect width="1024" height="1024" rx="228" fill="url(#halo)"/>
  <g filter="url(#shadow)">
    <circle cx="512" cy="500" r="252" fill="url(#ball)"/>
    <circle cx="512" cy="500" r="252" stroke="rgba(255,255,255,0.55)" stroke-width="8"/>
    <path d="M366 316C324 362 299 425 297 492C295 559 318 622 360 676" stroke="#C92020" stroke-width="20" stroke-linecap="round"/>
    <path d="M658 316C700 362 725 425 727 492C729 559 706 622 664 676" stroke="#C92020" stroke-width="20" stroke-linecap="round"/>
    <path d="M388 360L351 392" stroke="#C92020" stroke-width="10" stroke-linecap="round"/>
    <path d="M403 414L358 452" stroke="#C92020" stroke-width="10" stroke-linecap="round"/>
    <path d="M409 478L362 518" stroke="#C92020" stroke-width="10" stroke-linecap="round"/>
    <path d="M404 543L357 583" stroke="#C92020" stroke-width="10" stroke-linecap="round"/>
    <path d="M390 600L352 633" stroke="#C92020" stroke-width="10" stroke-linecap="round"/>
    <path d="M636 360L673 392" stroke="#C92020" stroke-width="10" stroke-linecap="round"/>
    <path d="M621 414L666 452" stroke="#C92020" stroke-width="10" stroke-linecap="round"/>
    <path d="M615 478L662 518" stroke="#C92020" stroke-width="10" stroke-linecap="round"/>
    <path d="M620 543L667 583" stroke="#C92020" stroke-width="10" stroke-linecap="round"/>
    <path d="M634 600L672 633" stroke="#C92020" stroke-width="10" stroke-linecap="round"/>
    <ellipse cx="438" cy="392" rx="74" ry="44" fill="#FFFFFF" fill-opacity="0.34" transform="rotate(-28 438 392)"/>
  </g>
</svg>
