<svg xmlns="http://www.w3.org/2000/svg" width="64" height="64" viewBox="0 0 100 100">
  <rect width="100" height="100" rx="22" fill="#090909"/>
  <!-- Partial circle ring -->
  <path d="M 91.5 43 A 43 43 0 1 1 61 12.5" stroke="white" stroke-width="4.2" stroke-linecap="round" fill="none"/>
  <!-- Baseball batter silhouette -->
  <path d="
    M 91 9
    C 86 13 79 19 74 23
    C 70 26 66 29 65 30
    C 61 32 57 32 54 33
    C 53 40 53 48 52 56
    C 51 63 49 70 47 77
    L 38 77
    C 35 70 33 63 31 56
    C 30 50 29 44 29 38
    C 29 33 30 30 31 27
    C 31 25 32 24 33 24
    C 33 22 33 21 33 20
    C 31 19 28 19 25 21
    C 23 22 22 23 22 24
    C 22 25 22 26 22 27
    C 23 28 25 28 27 28
    C 29 28 31 27 33 26
    C 35 25 36 23 36 21
    C 37 19 37 17 38 15
    C 38 14 39 13 40 13
    C 42 12 44 13 44 15
    C 45 17 45 19 44 23
    C 44 25 44 26 44 27
    C 46 27 48 28 49 30
    C 51 28 54 26 57 24
    C 60 22 63 20 66 18
    C 69 16 72 13 74 12
    C 77 11 81 10 85 9
    L 91 9
    Z
  " fill="white"/>
</svg>
